<svg width="800" height="800" viewBox="0 0 800 800" fill="none" xmlns="http://www.w3.org/2000/svg">
<g clip-path="url(#clip0_40_119)">
<path d="M473.161 223.412C453.803 224.948 431.442 226.484 409.08 229.488C374.838 233.892 340.595 239.901 312.316 253.272C257.225 275.724 219.979 323.406 219.979 393.517C219.979 481.563 276.583 526.218 348.026 526.218C371.901 526.218 391.236 523.305 409.08 518.81C437.427 509.865 461.257 493.444 489.536 463.674C505.957 486.035 510.385 496.493 538.709 520.346C546.14 523.35 553.572 523.35 559.535 518.855C577.401 503.97 608.64 477.113 625.061 462.206C632.469 456.175 631.001 447.298 626.551 439.799C610.13 418.928 593.8 400.994 593.8 360.788V226.551C593.8 169.789 598.204 117.635 556.598 78.8977C522.311 47.4787 468.711 35.6203 427.06 35.6203C421.097 35.6203 415.156 35.6203 409.17 35.6203C333.232 40.07 252.843 72.8217 234.931 166.876C231.995 178.734 240.962 183.274 246.903 184.787L330.273 195.268C339.217 193.687 343.667 186.278 345.135 178.779C352.657 146.05 379.423 129.629 409.193 126.625C410.706 126.625 412.197 126.625 415.179 126.625C433.023 126.625 452.358 134.124 462.816 148.919C474.629 166.876 473.228 190.773 473.228 211.599L473.161 223.412ZM456.785 400.904C446.372 421.797 428.483 435.214 409.125 439.709C406.166 439.709 401.739 441.245 397.244 441.245C364.493 441.245 345.068 415.879 345.068 378.565C345.068 330.905 373.392 308.453 409.125 298.041C428.483 293.591 450.844 292.055 473.183 292.055V309.967C473.161 344.3 474.561 371.111 456.785 400.904ZM800 608.007V612.864C799.209 642.024 783.827 697.973 747.417 728.759C740.143 734.406 732.848 731.176 736.055 723.022C746.649 697.16 770.862 637.122 759.546 623.367C751.527 612.864 718.301 613.654 689.999 616.093C677.079 617.72 665.718 618.465 656.819 620.227C648.755 620.972 647.083 613.744 655.215 608.098C665.741 600.802 677.102 595.155 690.022 591.022C736.078 577.288 789.542 585.375 796.838 594.319C798.419 596.623 800 601.479 800 608.007ZM723.158 664.702C712.632 672.765 701.361 680.106 689.999 686.679C605.048 737.749 495.048 764.402 399.616 764.402C245.864 764.402 108.352 707.663 4.02057 612.864C-4.92404 605.545 2.37169 595.042 12.8974 600.689C125.337 666.328 264.476 706.082 408.47 706.082C499.113 706.082 596.894 689.051 689.977 652.527C696.414 650.178 703.71 646.835 710.193 644.486C724.761 637.913 737.727 654.244 723.158 664.702Z" fill="#F7F7F7"/>
</g>
<defs>
<clipPath id="clip0_40_119">
<rect width="800" height="800" fill="white"/>
</clipPath>
</defs>
</svg>
